HIERARCHY
ROOT Hip
{
  OFFSET 0.0 0.0 0.0
  CHANNELS 6 Xposition Yposition Zposition Xrotation Yrotation Zrotation
  JOINT LowerSpine
  {
    OFFSET 0.0 0.061367 -0.03653
    CHANNELS 3 Xrotation Yrotation Zrotation
    JOINT MiddleSpine
    {
      OFFSET 0.0 0.056002 0.002633
      CHANNELS 3 Xrotation Yrotation Zrotation
      JOINT Chest
      {
        OFFSET 0.0 0.069296 -0.013882
        CHANNELS 3 Xrotation Yrotation Zrotation
        JOINT Neck
        {
          OFFSET 0.0 0.156156 -0.002923
          CHANNELS 3 Xrotation Yrotation Zrotation
          JOINT Head
          {
            OFFSET 0.0 0.088183 0.023986
            CHANNELS 3 Xrotation Yrotation Zrotation
            End Site
            {
              OFFSET 1e-06 0.123215 0.003678
            }
          }
        }
        JOINT LClavicle
        {
          OFFSET 0.014189 0.150698 0.046467
          CHANNELS 3 Xrotation Yrotation Zrotation
          JOINT LShoulder
          {
            OFFSET 0.082893 0.021616 -0.034976
            CHANNELS 3 Xrotation Yrotation Zrotation
            JOINT LForearm
            {
              OFFSET 0.195645 -0.000695 -0.001695
              CHANNELS 3 Xrotation Yrotation Zrotation
              JOINT LHand
              {
                OFFSET 0.163209 0.000474 -0.000977
                CHANNELS 3 Xrotation Yrotation Zrotation
                End Site
                {
                  OFFSET 0.0 0.006864 0.0
                }
              }
            }
          }
        }
        JOINT RClavicle
        {
          OFFSET -0.014189 0.150698 0.046467
          CHANNELS 3 Xrotation Yrotation Zrotation
          JOINT RShoulder
          {
            OFFSET -0.082908 0.021619 -0.034982
            CHANNELS 3 Xrotation Yrotation Zrotation
            JOINT RForearm
            {
              OFFSET -0.195645 -0.000695 -0.001695
              CHANNELS 3 Xrotation Yrotation Zrotation
              JOINT RHand
              {
                OFFSET -0.163209 0.000474 -0.000977
                CHANNELS 3 Xrotation Yrotation Zrotation
                End Site
                {
                  OFFSET 0.0 0.006864 0.0
                }
              }
            }
          }
        }
      }
    }
  }
  JOINT RThigh
  {
    OFFSET -0.072558 0.02774 -0.005953
    CHANNELS 3 Xrotation Yrotation Zrotation
    JOINT RShin
    {
      OFFSET -0.005253 -0.285537 0.0
      CHANNELS 3 Xrotation Yrotation Zrotation
      JOINT RFoot
      {
        OFFSET 0.0 -0.28038 0.0
        CHANNELS 3 Xrotation Yrotation Zrotation
        JOINT RToe
        {
          OFFSET 0.0 -0.030816 0.064441
          CHANNELS 3 Xrotation Yrotation Zrotation
          End Site
          {
            OFFSET 0.0 0.0 0.043231
          }
        }
      }
    }
  }
  JOINT LThigh
  {
    OFFSET 0.072557 0.027741 -0.005953
    CHANNELS 3 Xrotation Yrotation Zrotation
    JOINT LShin
    {
      OFFSET 0.005253 -0.285539 0.0
      CHANNELS 3 Xrotation Yrotation Zrotation
      JOINT LFoot
      {
        OFFSET 0.0 -0.28038 0.0
        CHANNELS 3 Xrotation Yrotation Zrotation
        JOINT LToe
        {
          OFFSET 0.0 -0.030816 0.064441
          CHANNELS 3 Xrotation Yrotation Zrotation
          End Site
          {
            OFFSET 0.0 0.0 0.043231
          }
        }
      }
    }
  }
}
MOTION
Frames: 18
Frame Time: 0.03333333333333333
-0.031772 0.56021 -0.078669 1.069192 7.616102 1.217449 2.77433 0.231397 -0.421681 0.01957 1.307407 0.263478 -4.812736 3.288991 -0.597663 1.066492 0.395816 -0.024238 0.055462 -0.181365 -0.044607 -0.483627 -0.871794 -8.351215 12.718964 -25.563951 -53.435841 8.355209 -43.817486 0.878056 0.194583 0.265809 -0.191702 -1.130188 0.31989 10.121309 3.143275 37.20723 62.876808 3.96426 32.402119 0.669327 0.117352 -0.370963 -0.004421 -16.75021 -1.171704 0.709987 31.245619 -0.704731 2.456471 -1.50724 0.61659 -0.078665 -0.016362 0.56511 0.161734 -10.423645 6.035735 0.46442 19.705719 3.649209 -5.134523 -1.756717 -0.749966 0.124339 0.014725 -0.138832 -0.002773 
-0.046296 0.551876 -0.090118 -0.392256 8.480226 0.942367 2.598507 0.02891 0.062298 -0.433389 1.221462 0.5458 -5.243078 4.463206 -1.179423 1.834394 0.359587 0.202083 0.064736 -0.266809 -0.048868 -1.369723 -1.436137 -7.608288 14.376071 -22.878487 -50.005955 9.236608 -41.329514 1.108194 0.106814 0.192909 -0.110229 -1.787892 1.215902 10.192274 5.920683 35.335796 57.871052 6.885458 37.601307 1.530575 -0.082192 -0.177516 -0.01887 -18.132856 -0.832771 1.343862 36.427986 -0.047844 2.036144 -1.433575 0.089963 -0.201288 -0.240946 0.26447 0.086407 -8.754457 7.267213 0.428662 13.834881 3.81246 -4.492918 -1.442166 -1.032836 -0.068472 0.057295 -0.131697 -0.044641 
-0.048836 0.542242 -0.090098 0.689532 8.36025 1.695654 2.252086 -0.167527 0.092941 -0.4505 1.29738 0.702102 -5.850778 4.107867 -0.54914 1.750944 0.325585 0.163857 0.061402 -0.209874 -0.041302 -1.460479 -1.512486 -7.767674 15.080388 -22.334318 -50.145569 9.180966 -43.097504 0.917171 0.076463 0.152406 -0.065355 -1.698011 1.473533 10.100382 6.015471 34.384018 57.150543 7.286696 40.385605 1.763216 -0.078384 -0.145823 -0.013812 -20.381969 -1.862777 1.285795 37.117043 -0.388868 1.799468 -2.014045 0.13319 -0.215158 -0.251065 0.214779 0.07488 -11.418568 7.26015 0.291472 14.205631 4.591199 -4.544974 -1.357604 -0.915631 -0.049829 0.051983 -0.10012 -0.03061 
-0.045405 0.534958 -0.092529 2.511986 8.387296 2.306483 2.018204 -0.158234 0.094679 -0.444008 1.286383 0.625514 -6.514976 3.304599 0.085098 1.593275 0.299291 0.089829 0.051845 -0.137666 -0.031314 -1.435499 -1.3226 -8.035437 15.126145 -21.787336 -50.448536 8.44917 -46.877964 0.336864 0.048661 0.108446 -0.028125 -1.502691 1.530287 10.250478 6.648245 32.925831 56.978634 7.17766 43.629887 2.596748 -0.013584 -0.124698 -0.002938 -23.083832 -2.860981 0.705131 38.382664 -1.006792 2.079338 -2.600873 0.155784 -0.187771 -0.238183 0.153422 0.047053 -16.054914 6.508619 -0.125829 16.764156 4.893096 -4.461594 -1.299701 -0.83649 -0.129346 0.027906 -0.041732 -0.000502 
-0.046395 0.531433 -0.090549 3.989006 8.37879 2.561272 1.920285 -0.138364 0.115555 -0.475412 1.255002 0.579772 -7.100802 2.980749 0.300949 1.546286 0.305024 0.051948 0.049949 -0.109892 -0.027474 -1.376127 -1.241421 -8.1416 15.313534 -21.715437 -50.596786 8.022981 -49.212421 -0.309722 0.03972 0.093739 -0.015153 -1.37615 1.503617 10.327763 6.852085 32.71191 57.358845 6.957514 44.030113 3.080922 0.012579 -0.112362 0.001754 -26.051785 -3.289349 0.370218 40.733166 -1.371592 2.298596 -2.889819 0.084166 -0.22657 -0.244622 0.130915 0.038989 -20.24091 6.040054 -0.405129 19.316704 4.924295 -4.484903 -1.274678 -0.837989 -0.167646 0.022315 -0.018441 0.012298 
-0.048075 0.527458 -0.09026 5.451486 8.592384 3.090206 1.862652 -0.129574 0.152859 -0.489353 1.230966 0.536321 -7.696408 2.955424 0.286299 1.532889 0.320714 0.030778 0.049713 -0.103994 -0.026024 -1.333953 -1.232583 -8.237014 15.699719 -21.872822 -50.633316 8.055922 -50.097466 -0.769717 0.036636 0.089971 -0.010735 -1.301849 1.49794 10.380123 6.500867 33.195332 57.797218 6.549941 42.972225 3.342776 0.016698 -0.101841 0.002657 -29.585733 -3.128422 0.119152 43.294914 -1.451235 2.365832 -3.276717 -0.025761 -0.300094 -0.25363 0.121887 0.038125 -24.389616 5.841886 -0.561191 22.003227 5.024042 -4.736826 -1.340312 -0.838577 -0.183011 0.022706 -0.010142 0.01698 
-0.05046 0.524301 -0.090261 6.312863 9.204904 3.505642 1.838213 -0.124524 0.192483 -0.488758 1.215154 0.524596 -8.045562 3.058978 0.238 1.530063 0.334279 0.02021 0.050011 -0.109319 -0.026042 -1.307327 -1.251827 -8.23814 16.093307 -22.073908 -50.621979 8.261874 -50.893963 -1.000849 0.037207 0.091667 -0.011727 -1.274776 1.502081 10.380821 6.087182 33.750866 58.073185 6.259327 41.589973 3.339415 0.010616 -0.09563 0.00191 -31.894936 -2.867349 0.003778 44.967922 -1.410258 2.345743 -3.550986 -0.09482 -0.357255 -0.264515 0.115649 0.04002 -27.121336 5.835966 -0.533747 23.690676 5.079042 -4.979691 -1.350466 -0.864626 -0.194604 0.025637 -0.009392 0.017475 
-0.053614 0.522472 -0.087283 6.648261 10.292607 3.73572 1.832439 -0.117307 0.224944 -0.476898 1.213317 0.542037 -8.105525 3.254207 0.219676 1.526796 0.346257 0.010022 0.050948 -0.121349 -0.028064 -1.289394 -1.293642 -8.160123 16.552799 -22.234921 -50.559448 8.515434 -51.821972 -1.12936 0.040143 0.097191 -0.01646 -1.280077 1.519524 10.340392 5.652348 34.148109 58.255775 5.992721 40.414734 3.238087 0.002742 -0.094844 0.000582 -32.797318 -2.717031 -0.040639 45.837223 -1.370491 2.30732 -3.729498 -0.13144 -0.40213 -0.27941 0.112958 0.042995 -28.629311 5.854317 -0.417313 24.414711 5.046604 -5.139526 -1.294125 -0.909278 -0.207057 0.030273 -0.014895 0.015488 
-0.057433 0.521071 -0.082616 6.944004 11.743087 3.701365 1.826738 -0.107867 0.239897 -0.456313 1.212194 0.566069 -8.08776 3.437754 0.225212 1.519839 0.357413 -0.004438 0.051583 -0.13004 -0.031129 -1.262294 -1.291823 -8.054473 16.895132 -22.434767 -50.577145 8.664364 -52.556778 -1.27345 0.043542 0.102366 -0.022338 -1.280232 1.517976 10.331892 5.078452 34.395622 58.497005 5.632511 39.446075 3.102643 0.001132 -0.09708 0.000278 -33.339703 -2.767876 0.01209 46.512535 -1.39502 2.306439 -3.846756 -0.148826 -0.434032 -0.29521 0.111083 0.043788 -30.133514 5.833167 -0.280471 25.100512 5.024625 -5.201522 -1.204168 -0.946475 -0.224177 0.033518 -0.018859 0.014798 
-0.061136 0.519542 -0.076413 7.254372 13.280267 3.502295 1.816177 -0.096805 0.245245 -0.438595 1.205377 0.590511 -8.078224 3.614179 0.268069 1.521543 0.371305 -0.021378 0.052251 -0.137212 -0.035079 -1.225222 -1.262049 -7.971809 17.21731 -22.593401 -50.694946 8.8029 -52.98299 -1.445546 0.046758 0.106821 -0.028776 -1.266821 1.504419 10.349804 4.470604 34.447739 58.789612 5.199533 38.836823 2.984286 0.000915 -0.098546 0.000118 -33.802971 -2.959954 0.119176 47.505474 -1.479986 2.336747 -3.945201 -0.164688 -0.46433 -0.313819 0.108333 0.043013 -31.856815 5.711165 -0.198319 25.886723 4.989021 -5.166922 -1.100353 -0.971673 -0.241699 0.036313 -0.021925 0.01454 
-0.064979 0.517763 -0.06877 7.58329 14.883144 3.242307 1.797334 -0.078806 0.230271 -0.416722 1.180793 0.597468 -8.102067 3.704463 0.340422 1.514453 0.375491 -0.045748 0.052362 -0.138184 -0.039203 -1.177321 -1.184737 -7.904857 17.448847 -22.739262 -50.83897 8.878437 -52.998619 -1.601978 0.048001 0.108147 -0.033223 -1.21818 1.476319 10.410285 3.875179 34.410351 59.133072 4.671654 38.670776 2.925771 0.007166 -0.09547 0.001061 -34.230053 -3.304404 0.199091 48.87326 -1.654857 2.437282 -4.011373 -0.194871 -0.488935 -0.33277 0.101322 0.038814 -33.806664 5.48035 -0.232361 26.79089 4.916732 -4.974097 -0.989455 -0.994699 -0.265156 0.036329 -0.018354 0.01686 
-0.067975 0.515597 -0.059869 7.36491 16.071707 2.753296 1.786797 -0.044574 0.190742 -0.402942 1.121022 0.602491 -8.126058 3.714447 0.435559 1.520941 0.376617 -0.069957 0.050489 -0.132425 -0.04174 -1.145637 -1.12109 -7.791743 17.857481 -22.938326 -51.024208 8.840981 -52.708977 -1.762072 0.047346 0.103157 -0.035396 -1.168127 1.48686 10.536345 3.347631 34.185509 59.575607 4.157799 39.180077 2.874196 0.019119 -0.087347 0.003481 -33.248058 -4.155221 0.51767 49.802658 -2.02244 2.644893 -4.055037 -0.222168 -0.500384 -0.363856 0.086862 0.029733 -35.415607 5.072551 -0.174082 26.854826 4.680017 -4.603348 -0.832376 -1.004101 -0.299098 0.031937 -0.01056 0.020988 
-0.068856 0.514157 -0.048596 6.576064 16.897823 2.054001 1.818091 -0.030496 0.159798 -0.388871 1.079467 0.637433 -8.017861 3.826026 0.564259 1.570596 0.396768 -0.098537 0.048519 -0.145581 -0.0441 -1.113454 -1.19117 -7.669229 18.224751 -22.941734 -51.446918 8.762255 -52.334427 -1.661503 0.050107 0.104419 -0.042539 -1.149641 1.482073 10.57783 2.472703 34.053627 60.25164 3.762537 39.405914 2.661839 0.015769 -0.081243 0.003542 -30.631924 -5.22572 1.035953 49.704639 -2.497409 2.872024 -3.99324 -0.241175 -0.533824 -0.403396 0.080303 0.027628 -35.793369 4.685411 0.021884 26.043726 4.294755 -4.272962 -0.667036 -1.019329 -0.315784 0.032534 -0.012976 0.019229 
-0.067607 0.512975 -0.035322 5.767597 17.555861 1.096346 1.855549 -0.040846 0.138545 -0.382694 1.059171 0.710892 -7.922532 4.021269 0.716821 1.654216 0.442856 -0.15571 0.048069 -0.171903 -0.045228 -1.044619 -1.29244 -7.474651 18.756229 -22.822136 -52.077003 8.869749 -52.301624 -1.435137 0.053545 0.111626 -0.052364 -1.127861 1.330916 10.533177 1.490321 34.056896 61.079624 3.610331 39.828014 2.299404 -0.00016 -0.076406 0.001202 -27.131498 -6.466343 1.532897 49.258396 -3.100572 3.121076 -3.827736 -0.286651 -0.595858 -0.463343 0.078485 0.030587 -35.933685 4.362146 0.3554 24.650442 3.956554 -3.971418 -0.432026 -1.050009 -0.32478 0.038078 -0.025178 0.011933 
-0.063228 0.513191 -0.017055 4.844905 18.216831 0.054887 1.88933 -0.069828 0.10847 -0.364101 1.068114 0.810414 -7.845492 4.295771 1.027176 1.708529 0.498334 -0.221419 0.050306 -0.205082 -0.048554 -0.925255 -1.369515 -7.304005 19.314236 -22.700785 -52.925079 9.027626 -52.142849 -1.278808 0.06464 0.132158 -0.074188 -1.088464 0.972186 10.508363 0.884721 33.95134 62.020893 3.598831 40.634659 1.750216 -0.011239 -0.090724 -0.002538 -22.057922 -7.815279 2.015597 47.814663 -3.748323 3.416078 -3.551382 -0.289395 -0.661194 -0.521735 0.0965 0.035887 -35.054466 3.964383 0.380781 22.828156 3.520983 -3.576697 -0.172269 -1.09826 -0.322376 0.046487 -0.046733 0.002504 
-0.05742 0.513565 0.00167 4.057392 18.490826 -0.79703 1.899405 -0.096489 0.068369 -0.309731 1.109076 0.872212 -7.604003 4.573562 1.469205 1.748118 0.549701 -0.291046 0.051798 -0.230219 -0.053161 -0.791755 -1.395818 -7.249247 19.797571 -22.391436 -53.49625 9.305477 -51.997543 -1.048369 0.075895 0.152407 -0.096118 -1.023717 0.509909 10.494921 0.565782 33.680027 62.796146 3.542497 41.864075 1.170841 -0.009632 -0.111121 -0.005664 -17.591818 -9.147849 2.316967 46.682987 -4.370642 3.761602 -3.25382 -0.264228 -0.711905 -0.562656 0.12166 0.039349 -34.026081 3.511584 0.168762 21.307831 3.114836 -3.229872 0.062602 -1.136897 -0.324133 0.052916 -0.065794 -0.005029 
-0.052725 0.514271 0.017873 4.014701 18.612398 -1.491507 1.916756 -0.091695 0.053685 -0.285859 1.143258 0.940145 -7.297196 4.827239 1.800625 1.79822 0.60914 -0.357001 0.055077 -0.267943 -0.059405 -0.65959 -1.471795 -7.363601 20.20347 -21.992373 -54.277451 10.014657 -51.331966 -0.485054 0.09099 0.176949 -0.120988 -0.947422 0.114585 10.503488 0.214196 33.345581 63.639496 3.275468 42.850578 0.7874 -0.033022 -0.120549 -0.011434 -15.113221 -10.083601 2.599888 46.165981 -4.978688 3.96845 -2.988643 -0.304886 -0.805356 -0.613208 0.153214 0.052646 -34.161919 3.014867 -0.07655 20.199638 2.654104 -2.889972 0.250468 -1.186247 -0.301117 0.066735 -0.091585 -0.017017 
-0.047934 0.514589 0.032238 4.195255 18.415052 -1.977085 1.998739 -0.079242 0.02432 -0.328282 1.179364 1.006458 -7.139689 5.099688 2.147015 1.905039 0.686644 -0.375549 0.057458 -0.304088 -0.063059 -0.584227 -1.522933 -7.39502 20.745115 -21.816629 -55.153702 10.526197 -50.468624 0.144889 0.103994 0.195866 -0.141788 -0.880709 -0.180111 10.55168 -0.239722 33.034542 64.202965 2.857732 43.940792 0.607543 -0.059838 -0.118085 -0.016096 -13.66501 -10.963353 2.634288 45.99585 -5.590388 4.169707 -2.677892 -0.3797 -0.896253 -0.671493 0.169667 0.067223 -34.378082 2.665528 -0.576074 19.295956 2.147587 -2.503503 0.372147 -1.244703 -0.29058 0.074542 -0.108975 -0.026022 
